<?xml version="1.0" encoding="UTF-8" standalone="no"?>
<!-- Created with Inkscape (http://www.inkscape.org/) -->

<svg
   xmlns:dc="http://purl.org/dc/elements/1.1/"
   xmlns:cc="http://creativecommons.org/ns#"
   xmlns:rdf="http://www.w3.org/1999/02/22-rdf-syntax-ns#"
   xmlns:svg="http://www.w3.org/2000/svg"
   xmlns="http://www.w3.org/2000/svg"
   xmlns:sodipodi="http://sodipodi.sourceforge.net/DTD/sodipodi-0.dtd"
   xmlns:inkscape="http://www.inkscape.org/namespaces/inkscape"
   width="412.84375"
   height="406.88254"
   id="svg3177"
   version="1.1"
   inkscape:version="0.48.0 r9654"
   sodipodi:docname="virus9.svg">
  <defs
     id="defs3179" />
  <sodipodi:namedview
     id="base"
     pagecolor="#ffffff"
     bordercolor="#666666"
     borderopacity="1.0"
     inkscape:pageopacity="0.0"
     inkscape:pageshadow="2"
     inkscape:zoom="1"
     inkscape:cx="-6"
     inkscape:cy="227.59933"
     inkscape:document-units="px"
     inkscape:current-layer="capa1"
     showgrid="false"
     fit-margin-top="0"
     fit-margin-left="0"
     fit-margin-right="0"
     fit-margin-bottom="0"
     inkscape:window-width="1920"
     inkscape:window-height="1005"
     inkscape:window-x="0"
     inkscape:window-y="24"
     inkscape:window-maximized="1" />
  <metadata
     id="metadata3182">
    <rdf:RDF>
      <cc:Work
         rdf:about="">
        <dc:format>image/svg+xml</dc:format>
        <dc:type
           rdf:resource="http://purl.org/dc/dcmitype/StillImage" />
      </cc:Work>
    </rdf:RDF>
  </metadata>
  <g
     inkscape:label="Capa 1"
     inkscape:groupmode="layer"
     id="capa1"
     transform="translate(-40.625,-49.023704)">
    <path
       sodipodi:type="arc"
       style="fill:#ffffff;fill-opacity:1;stroke:none;stroke-width:2;stroke-linecap:round;stroke-linejoin:round;stroke-miterlimit:4;stroke-opacity:1;stroke-dasharray:none"
       id="path3026"
       sodipodi:cx="76.5"
       sodipodi:cy="87.382538"
       sodipodi:rx="54.5"
       sodipodi:ry="38.5"
       d="m 131,87.382538 a 54.5,38.5 0 1 1 -109,0 54.5,38.5 0 1 1 109,0 z"
       transform="translate(61.625,33.023704)" />
    <path
       sodipodi:type="arc"
       style="fill:#b13339;fill-opacity:1;stroke:#9e9047;stroke-width:3.65697432;stroke-miterlimit:4;stroke-opacity:1;stroke-dasharray:none"
       id="path4191-0"
       sodipodi:cx="-68.660904"
       sodipodi:cy="113.70114"
       sodipodi:rx="20.819759"
       sodipodi:ry="17.27597"
       d="m -47.841145,113.70114 c 0,9.54126 -9.321323,17.27597 -20.819759,17.27597 -11.498436,0 -20.819759,-7.73471 -20.819759,-17.27597 0,-9.54125 9.321323,-17.275969 20.819759,-17.275969 11.498436,0 20.819759,7.734719 20.819759,17.275969 z"
       transform="matrix(0.91489362,0,0,1.3076923,215.20033,-51.374989)" />
    <path
       sodipodi:type="arc"
       style="fill:#b13339;fill-opacity:1;stroke:#9ee247;stroke-width:3.65697432;stroke-miterlimit:4;stroke-opacity:1;stroke-dasharray:none"
       id="path4191"
       sodipodi:cx="-68.660904"
       sodipodi:cy="113.70114"
       sodipodi:rx="20.819759"
       sodipodi:ry="17.27597"
       d="m -47.841145,113.70114 c 0,9.54126 -9.321323,17.27597 -20.819759,17.27597 -11.498436,0 -20.819759,-7.73471 -20.819759,-17.27597 0,-9.54125 9.321323,-17.275969 20.819759,-17.275969 11.498436,0 20.819759,7.734719 20.819759,17.275969 z"
       transform="matrix(0.91489362,0,0,1.3076923,174.88974,-42.072544)" />
    <path
       style="fill:#d53339;fill-opacity:1;stroke:#f23447;stroke-width:4;stroke-linejoin:round;stroke-miterlimit:4;stroke-opacity:1;stroke-dasharray:none"
       d="m 169.65625,242.59216 c -23.73081,0 -42.96875,19.23794 -42.96875,42.96875 0,8.47271 2.45399,16.37512 6.6875,23.03125 -2.85096,5.74645 -4.46875,12.21284 -4.46875,19.0625 0,18.71378 11.96036,34.63641 28.65625,40.53125 2.51892,21.33032 20.64866,37.875 42.65625,37.875 3.73203,0 7.36007,-0.48076 10.8125,-1.375 5.84268,16.79165 21.78025,28.84375 40.5625,28.84375 5.22566,0 10.24253,-0.91675 14.875,-2.625 7.81283,10.72357 20.46661,17.6875 34.75,17.6875 7.88514,0 15.27291,-2.13674 21.625,-5.84375 7.63064,6.9354 17.75118,11.15625 28.875,11.15625 17.21472,0 32.04889,-10.13169 38.90625,-24.75 2.73667,0.61837 5.58611,0.9375 8.5,0.9375 22.07292,0 39.96875,-18.69849 39.96875,-41.75 0,-4.8222 -0.80945,-9.44091 -2.25,-13.75 8.9203,-7.96884 14.625,-20.27532 14.625,-34.09375 0,-17.82924 -9.52478,-33.15612 -23.15625,-39.875 0.84088,-3.09642 1.28125,-6.34294 1.28125,-9.71875 0,-19.77325 -15.42944,-35.8125 -34.46875,-35.8125 -19.03931,0 -34.46875,16.03925 -34.46875,35.8125 0,13.26939 6.9547,24.81556 17.28125,31 -2.37564,5.64302 -3.71875,11.93365 -3.71875,18.59375 0,4.78209 0.70293,9.38355 1.96875,13.6875 -5.382,3.94824 -9.80107,9.22742 -12.78125,15.40625 -3.71572,-1.04781 -7.63658,-1.625 -11.6875,-1.625 -7.87902,0 -15.24499,2.14208 -21.59375,5.84375 -7.63064,-6.9354 -17.78243,-11.15625 -28.90625,-11.15625 -5.22613,0 -10.24219,0.91646 -14.875,2.625 -7.81305,-10.72142 -20.46829,-17.6875 -34.75,-17.6875 -3.73203,0 -7.32882,0.48076 -10.78125,1.375 -4.2812,-12.30705 -14.00034,-22.0382 -26.28125,-26.375 -0.77096,-6.54164 -3.00609,-12.63195 -6.375,-17.9375 2.85092,-5.74641 4.46875,-12.24409 4.46875,-19.09375 0,-23.73081 -19.23794,-42.96875 -42.96875,-42.96875 z"
       id="path4024-7"
       inkscape:connector-curvature="0" />
    <rect
       style="fill:#7a0000;fill-opacity:1;stroke:none"
       id="rect3254"
       width="85.936874"
       height="62.016304"
       x="126.69045"
       y="213.37021"
       rx="1.7763568e-15" />
    <path
       sodipodi:type="arc"
       style="fill:#007266;fill-opacity:1;stroke:none"
       id="path5262"
       sodipodi:cx="-546"
       sodipodi:cy="143.36218"
       sodipodi:rx="12"
       sodipodi:ry="12"
       d="m -534,143.36218 c 0,6.62742 -5.37258,12 -12,12 -6.62742,0 -12,-5.37258 -12,-12 0,-6.62741 5.37258,-12 12,-12 6.62742,0 12,5.37259 12,12 z"
       transform="matrix(0.81543539,0,0,0.79135278,591.7929,-22.713037)" />
    <path
       sodipodi:type="arc"
       style="fill:#007266;fill-opacity:1;stroke:none"
       id="path5260"
       sodipodi:cx="-523.5"
       sodipodi:cy="249.86218"
       sodipodi:rx="10.5"
       sodipodi:ry="11.5"
       d="m -513,249.86218 c 0,6.35128 -4.70101,11.5 -10.5,11.5 -5.79899,0 -10.5,-5.14872 -10.5,-11.5 0,-6.35127 4.70101,-11.5 10.5,-11.5 5.79899,0 10.5,5.14873 10.5,11.5 z"
       transform="matrix(0.8508891,0,0,0.82575942,561.37361,-108.98295)" />
    <path
       style="fill:none;stroke:#f66c47;stroke-width:0.83823007px;stroke-linecap:butt;stroke-linejoin:miter;stroke-opacity:1"
       d="m 191.23686,228.22597 c 2.91379,-0.8626 2.63006,2.51483 4.25444,3.30304 0.25369,0.12309 0.59721,-0.1231 0.85089,0 0.71753,0.34817 0.98425,1.30335 1.70178,1.65152 0.25368,0.12309 0.5972,-0.1231 0.85089,0 0.35877,0.17408 0.49212,0.65167 0.85089,0.82575 0.25368,0.1231 0.5972,-0.12309 0.85089,0 0.35877,0.17409 0.49212,0.65168 0.85089,0.82576 0.25368,0.1231 0.65033,-0.19463 0.85089,0 0.20055,0.19464 -0.20056,0.63113 0,0.82576 0.20055,0.19464 0.65033,-0.19463 0.85088,0 0.20056,0.19464 -0.20055,0.63113 0,0.82576 0.20056,0.19463 0.59721,-0.12309 0.85089,0 0.35877,0.17409 0.56727,0.55051 0.85089,0.82576"
       id="path5427"
       inkscape:connector-curvature="0" />
    <path
       style="fill:none;stroke:#f66c47;stroke-width:0.83823007px;stroke-linecap:butt;stroke-linejoin:miter;stroke-opacity:1"
       d="m 189.53508,105.18782 c 0.28363,-1.10101 -0.28363,-3.57829 0.85089,-3.30304 1.13451,0.27526 -1.67781,4.10553 -0.85089,3.30304 1.08003,-1.04813 1.01871,-2.803 1.70178,-4.1288 0.17938,-0.34817 0.6715,-0.47759 0.85089,-0.82576 0.12684,-0.246187 -0.12685,-0.579557 0,-0.825757 0.17938,-0.34817 0.6715,-0.47759 0.85088,-0.82576 0.25369,-0.49238 -0.4011,-1.26225 0,-1.65152 0.20056,-0.19463 0.65034,0.19463 0.85089,0 0.40111,-0.38926 -0.25368,-1.15913 0,-1.65152 1.05145,-2.04078 0.85089,0.28504 0.85089,-1.65152 0,-1.93655 -0.20055,0.38927 0.85089,-1.65152 0.12684,-0.24619 -0.20055,-0.63112 0,-0.82576 0.20056,-0.19463 0.65034,0.19464 0.85089,0 0.20056,-0.19463 -0.20055,-0.63112 0,-0.82575 0.20056,-0.19464 0.65034,0.19463 0.85089,0 0.40111,-0.38927 -0.40111,-1.26225 0,-1.65152 0.20055,-0.19463 0.85089,-0.27525 0.85089,0 0,0.38927 -0.56726,0.55051 -0.85089,0.82576"
       id="path5407"
       inkscape:connector-curvature="0" />
    <path
       style="fill:none;stroke:#f66c47;stroke-width:0.83823007px;stroke-linecap:butt;stroke-linejoin:miter;stroke-opacity:1"
       d="m 201.44753,108.49085 c -0.75444,-2.80964 5.07055,-1.22176 5.95622,-1.65152 0.35877,-0.17408 0.49212,-0.65167 0.85089,-0.82576 0.5348,-0.2595 2.86875,0.25951 3.40356,0 0.35876,-0.17408 0.49212,-0.65167 0.85088,-0.82575 0.58774,-0.28519 3.95577,0.28985 4.25445,0 0.20055,-0.19464 -0.20055,-0.63113 0,-0.82576 0.40111,-0.38927 1.30067,0.38927 1.70178,0 0.20055,-0.19464 -0.20056,-0.63113 0,-0.82576 0.20055,-0.19464 0.56726,0 0.85089,0 0.28362,0 0.56726,0 0.85089,0"
       id="path5409"
       inkscape:connector-curvature="0" />
    <path
       style="fill:none;stroke:#f66c47;stroke-width:0.83823007px;stroke-linecap:butt;stroke-linejoin:miter;stroke-opacity:1"
       d="m 235.48309,180.33192 c 1.74534,2.13723 4.01054,0.35371 5.95622,0.82576 0.61528,0.14928 1.13452,0.55051 1.70178,0.82576 0.56726,0.27526 1.17408,0.48435 1.70178,0.82576 0.33374,0.21593 0.47036,0.70266 0.85089,0.82576 0.53815,0.17409 1.16362,-0.17409 1.70178,0 0.38052,0.1231 0.49212,0.65167 0.85089,0.82576 0.25368,0.1231 0.5972,-0.1231 0.85089,0 0.35876,0.17409 0.49212,0.65167 0.85088,0.82576 0.25369,0.12309 0.85089,-0.27525 0.85089,0 0,0.27526 -0.56726,0 -0.85089,0"
       id="path5411"
       inkscape:connector-curvature="0" />
    <path
       style="fill:none;stroke:#f66c47;stroke-width:0.83823007px;stroke-linecap:butt;stroke-linejoin:miter;stroke-opacity:1"
       d="m 232.93042,186.938 c 2.26904,2.20203 4.53807,4.40405 6.80712,6.60607 0.28362,0.27526 0.62839,0.50187 0.85088,0.82576 0.3518,0.51212 0.49909,1.13941 0.85089,1.65152 0.445,0.64778 1.34301,0.95518 1.70178,1.65152 0.12684,0.2462 -0.20055,0.63113 0,0.82576 0.20056,0.19463 0.65034,-0.19463 0.85089,0 1.76052,1.70853 -2.69031,-0.0668 0.85089,1.65152 2.504,1.21503 -1.12026,-1.91294 1.70178,0.82576"
       id="path5413"
       inkscape:connector-curvature="0" />
    <path
       style="fill:none;stroke:#f66c47;stroke-width:0.83823007px;stroke-linecap:butt;stroke-linejoin:miter;stroke-opacity:1"
       d="m 58.49816,149.77882 c -1.13452,-0.27525 -2.26904,-0.5505 -3.40356,-0.82576 -0.28363,-0.27525 -0.49212,-0.65167 -0.85089,-0.82575 -0.25368,-0.1231 -0.61489,0.15268 -0.85089,0 -0.66749,-0.43185 -1.05999,-1.1844 -1.70178,-1.65152 -1.48697,-1.08229 -2.53841,-0.81884 -4.25444,-1.65152 -0.35877,-0.17409 -0.47036,-0.70267 -0.85089,-0.82576 -0.53815,-0.17409 -1.16362,0.17408 -1.70178,0 -0.38052,-0.1231 -0.49212,-0.65167 -0.85089,-0.82576 -0.25368,-0.1231 -0.5972,0.12309 -0.85089,0 -0.35877,-0.17409 -0.49212,-0.65167 -0.85089,-0.82576 -0.25368,-0.1231 -0.56726,0 -0.85088,0 -0.28363,0 -0.56727,0 -0.85089,0"
       id="path5415"
       inkscape:connector-curvature="0" />
    <path
       style="fill:#000000;fill-opacity:0;stroke:#f66c47;stroke-width:0.83823007px;stroke-linecap:butt;stroke-linejoin:miter;stroke-opacity:1"
       d="m 70.4106,125.00604 c -4.7273,-2.55298 -7.59499,-7.35642 -12.29624,-9.94417 -0.61173,-0.34839 -1.05814,-0.98395 -1.31801,-1.61646"
       id="path5417"
       inkscape:connector-curvature="0" />
    <path
       style="fill:none;stroke:#f66c47;stroke-width:0.83823007px;stroke-linecap:butt;stroke-linejoin:miter;stroke-opacity:1"
       d="m 57.64727,146.47579 c 0,-8.22994 0.80223,-0.92021 -0.85089,-4.1288 -0.25368,-0.49238 0.40111,-1.26225 0,-1.65152 -0.20056,-0.19463 -0.65034,0.19463 -0.85089,0 -0.20475,-0.1987 0.20475,-3.10433 0,-3.30304 -0.20055,-0.19463 -0.65033,0.19463 -0.85089,0 -0.20055,-0.19463 0.20056,-0.63113 0,-0.82576 -0.20055,-0.19463 -0.65033,0.19463 -0.85089,0 -0.20055,-0.19463 0.12684,-0.57956 0,-0.82576 -0.11296,-0.21924 -2.32675,-2.36765 -2.55267,-2.47727 -0.25368,-0.1231 -0.65033,0.19463 -0.85088,0 -0.20056,-0.19464 0.12684,-0.57956 0,-0.82576 -0.17939,-0.34817 -0.56727,-0.5505 -0.85089,-0.82576 -0.28363,-0.27525 -0.56727,-0.5505 -0.85089,-0.82576"
       id="path5419"
       inkscape:connector-curvature="0" />
    <path
       style="fill:none;stroke:#f66c47;stroke-width:0.83823007px;stroke-linecap:butt;stroke-linejoin:miter;stroke-opacity:1"
       d="m 74.66505,210.88502 c 0,1.10102 1.13452,3.30304 0,3.30304 -1.13452,0 0.80223,-4.08157 0,-3.30304 -1.02264,0.99244 -0.61313,2.74438 -0.85089,4.1288 -0.0466,0.27151 0.20056,0.63113 0,0.82576 -0.20055,0.19463 -0.56726,0 -0.85089,0 -0.28362,0.55051 -0.49909,1.13941 -0.85089,1.65152 -0.2359,0.3434 -3.09922,3.15536 -3.40355,3.30303 -0.25369,0.1231 -0.85089,0.27526 -0.85089,0 0,-0.27525 0.56726,0 0.85089,0"
       id="path5421"
       inkscape:connector-curvature="0" />
    <path
       style="fill:none;stroke:#f66c47;stroke-width:0.83823007px;stroke-linecap:butt;stroke-linejoin:miter;stroke-opacity:1"
       d="m 93.38461,220.79413 c 0.28363,1.10102 0.62154,2.19018 0.85089,3.30304 0.1892,0.91807 0,2.33797 0,3.30304 0,1.92678 0,3.85355 0,5.78032 0,0.4758 0.15507,3.82783 0,4.12879 -1.05144,2.04079 -0.85089,-0.28503 -0.85089,1.65152"
       id="path5423"
       inkscape:connector-curvature="0" />
    <path
       style="fill:none;stroke:#f66c47;stroke-width:0.83823007px;stroke-linecap:butt;stroke-linejoin:miter;stroke-opacity:1"
       d="m 169.11374,234.83204 c -1.05809,1.21194 3.62452,3.73192 4.25445,4.95456 0.25368,0.49239 -0.25369,1.15914 0,1.65152 0.51053,0.99091 2.04213,1.48637 2.55266,2.47728 0.12685,0.2462 -0.20055,0.63113 0,0.82576 0.20056,0.19463 0.56727,0 0.85089,0"
       id="path5425"
       inkscape:connector-curvature="0" />
    <path
       style="fill:none;stroke:#f66c47;stroke-width:0.83823007px;stroke-linecap:butt;stroke-linejoin:miter;stroke-opacity:1"
       d="m 198.04397,224.09717 c -0.56726,1.37627 -1.21877,2.72258 -1.70178,4.1288 -0.17938,0.52226 0,1.10102 0,1.65152 0,1.65152 0,3.30304 0,4.95455 0,0.37189 0.12948,2.22598 0,2.47728 -0.17938,0.34818 -0.6715,0.4776 -0.85089,0.82576 -0.34035,0.66061 0.34036,1.81667 0,2.47728 -0.17938,0.34817 -0.56726,0.55051 -0.85089,0.82576"
       id="path5429"
       inkscape:connector-curvature="0" />
    <path
       style="fill:#d53339;fill-opacity:1;stroke:none"
       d="m 155.73883,68.555333 c -9.24807,-0.0847 -17.94616,5.7863 -23.23991,14.91528 1.79382,1.851 3.344,4.00235 4.62671,6.39963 3.10952,-0.23757 6.25075,-0.36127 9.43955,-0.36127 11.76758,0 23.04861,1.63947 33.47717,4.6707 -1.62204,-13.29712 -10.0791,-23.86129 -21.6179,-25.4179 -0.90183,-0.12166 -1.79153,-0.19825 -2.68562,-0.20644 z m 24.30352,25.62434 c 0.40631,3.33083 0.40559,6.825277 -0.10636,10.399407 -2.55574,17.84258 -16.33578,30.7449 -30.76496,28.79836 -5.1246,-0.69132 -9.63313,-3.19348 -13.21537,-6.88993 -5.80554,10.01156 -15.69565,16.11469 -25.92553,14.73465 -14.42918,-1.94654 -24.06728,-18.00054 -21.51154,-35.84312 0.035,-0.24422 0.0938,-0.48021 0.13295,-0.72254 -23.4745,13.85893 -38.66227,35.95706 -38.66227,60.82234 0,41.957 43.2385,75.96987 96.57591,75.96987 53.3374,0 96.57591,-34.01287 96.57591,-75.96987 0,-32.70022 -26.25913,-60.59111 -63.09874,-71.299167 z M 88.65154,104.6565 c 11.7479,-6.935757 25.56835,-11.794607 40.60336,-13.934687 0.84695,-2.59366 1.94553,-5.01198 3.24402,-7.2512 -3.58224,-3.69645 -8.09077,-6.1728 -13.21537,-6.86413 -14.23169,-1.91989 -27.81044,10.58729 -30.63201,28.050017 z M 129.2549,90.721813 c 4.83149,-0.9278 4.97998,-0.76026 7.87073,-0.85157 2.57826,-3.72705 -3.42996,-15.39883 -7.87073,0.85157 z"
       id="path5116"
       inkscape:connector-curvature="0"
       sodipodi:nodetypes="sccscsscsscsscsssccccscccc" />
    <path
       sodipodi:type="arc"
       style="fill:#f66c47;fill-opacity:0.47908744;stroke:none"
       id="path5264"
       sodipodi:cx="-373.5"
       sodipodi:cy="362.86218"
       sodipodi:rx="13.5"
       sodipodi:ry="14.5"
       d="m -360,362.86218 c 0,8.00813 -6.04416,14.5 -13.5,14.5 -7.45584,0 -13.5,-6.49187 -13.5,-14.5 0,-8.00813 6.04416,-14.5 13.5,-14.5 7.45584,0 13.5,6.49187 13.5,14.5 z"
       transform="matrix(0.8508891,0,0,0.82575942,538.39961,-116.41478)" />
    <path
       transform="matrix(0.37817293,0,0,0.37016801,336.17562,5.136853)"
       sodipodi:type="arc"
       style="fill:#f66c47;fill-opacity:1;stroke:none"
       id="path5264-4"
       sodipodi:cx="-373.5"
       sodipodi:cy="362.86218"
       sodipodi:rx="13.5"
       sodipodi:ry="14.5"
       d="m -360,362.86218 c 0,8.00813 -6.04416,14.5 -13.5,14.5 -7.45584,0 -13.5,-6.49187 -13.5,-14.5 0,-8.00813 6.04416,-14.5 13.5,-14.5 7.45584,0 13.5,6.49187 13.5,14.5 z" />
    <path
       transform="matrix(0.15757205,0,0,0.2277957,270.93681,55.972643)"
       sodipodi:type="arc"
       style="fill:#f66c47;fill-opacity:1;stroke:none"
       id="path5264-4-6"
       sodipodi:cx="-373.5"
       sodipodi:cy="362.86218"
       sodipodi:rx="13.5"
       sodipodi:ry="14.5"
       d="m -360,362.86218 c 0,8.00813 -6.04416,14.5 -13.5,14.5 -7.45584,0 -13.5,-6.49187 -13.5,-14.5 0,-8.00813 6.04416,-14.5 13.5,-14.5 7.45584,0 13.5,6.49187 13.5,14.5 z" />
    <path
       transform="matrix(0.22060087,0,0,0.2277957,286.82006,43.586243)"
       sodipodi:type="arc"
       style="fill:#f66c47;fill-opacity:1;stroke:none"
       id="path5264-4-0"
       sodipodi:cx="-373.5"
       sodipodi:cy="362.86218"
       sodipodi:rx="13.5"
       sodipodi:ry="14.5"
       d="m -360,362.86218 c 0,8.00813 -6.04416,14.5 -13.5,14.5 -7.45584,0 -13.5,-6.49187 -13.5,-14.5 0,-8.00813 6.04416,-14.5 13.5,-14.5 7.45584,0 13.5,6.49187 13.5,14.5 z" />
    <path
       transform="matrix(0.37817293,0,0,0.37016801,338.44067,-24.177597)"
       sodipodi:type="arc"
       style="fill:#f66c47;fill-opacity:1;stroke:none"
       id="path5264-4-1"
       sodipodi:cx="-373.5"
       sodipodi:cy="362.86218"
       sodipodi:rx="13.5"
       sodipodi:ry="14.5"
       d="m -360,362.86218 c 0,8.00813 -6.04416,14.5 -13.5,14.5 -7.45584,0 -13.5,-6.49187 -13.5,-14.5 0,-8.00813 6.04416,-14.5 13.5,-14.5 7.45584,0 13.5,6.49187 13.5,14.5 z" />
    <path
       transform="matrix(0.25211528,0,0,0.2277957,321.99015,65.055993)"
       sodipodi:type="arc"
       style="fill:#f66c47;fill-opacity:1;stroke:none"
       id="path5264-4-61"
       sodipodi:cx="-373.5"
       sodipodi:cy="362.86218"
       sodipodi:rx="13.5"
       sodipodi:ry="14.5"
       d="m -360,362.86218 c 0,8.00813 -6.04416,14.5 -13.5,14.5 -7.45584,0 -13.5,-6.49187 -13.5,-14.5 0,-8.00813 6.04416,-14.5 13.5,-14.5 7.45584,0 13.5,6.49187 13.5,14.5 z" />
    <path
       transform="matrix(0.37817293,0,0,0.37016801,334.18623,70.784743)"
       sodipodi:type="arc"
       style="fill:#f66c47;fill-opacity:1;stroke:none"
       id="path5264-4-8"
       sodipodi:cx="-373.5"
       sodipodi:cy="362.86218"
       sodipodi:rx="13.5"
       sodipodi:ry="14.5"
       d="m -360,362.86218 c 0,8.00813 -6.04416,14.5 -13.5,14.5 -7.45584,0 -13.5,-6.49187 -13.5,-14.5 0,-8.00813 6.04416,-14.5 13.5,-14.5 7.45584,0 13.5,6.49187 13.5,14.5 z" />
    <path
       transform="matrix(0.39759497,0.44654607,-0.61393527,0.52822355,444.23889,112.50503)"
       sodipodi:type="arc"
       style="fill:none;stroke:#f66c47;stroke-width:3.74596572;stroke-miterlimit:4;stroke-opacity:0.77946771;stroke-dasharray:none"
       id="path5264-4-81"
       sodipodi:cx="-373.5"
       sodipodi:cy="362.86218"
       sodipodi:rx="13.5"
       sodipodi:ry="14.5"
       d="m -360,362.86218 c 0,8.00813 -6.04416,14.5 -13.5,14.5 -7.45584,0 -13.5,-6.49187 -13.5,-14.5 0,-8.00813 6.04416,-14.5 13.5,-14.5 7.45584,0 13.5,6.49187 13.5,14.5 z" />
    <path
       transform="matrix(0.50733683,-0.22462745,0.19808754,0.72280441,182.0662,-172.45088)"
       sodipodi:type="arc"
       style="fill:none;stroke:#f66c47;stroke-width:3.74596572;stroke-miterlimit:4;stroke-opacity:0.77946771;stroke-dasharray:none"
       id="path5264-4-81-1"
       sodipodi:cx="-373.5"
       sodipodi:cy="362.86218"
       sodipodi:rx="13.5"
       sodipodi:ry="14.5"
       d="m -360,362.86218 c 0,8.00813 -6.04416,14.5 -13.5,14.5 -7.45584,0 -13.5,-6.49187 -13.5,-14.5 0,-8.00813 6.04416,-14.5 13.5,-14.5 7.45584,0 13.5,6.49187 13.5,14.5 z"
       inkscape:transform-center-x="-17.868666" />
    <path
       transform="matrix(-0.50676399,0.53676404,-1.5047405,-0.32170523,488.28627,541.31321)"
       sodipodi:type="arc"
       style="fill:none;stroke:#f66c47;stroke-width:3.74596572;stroke-miterlimit:4;stroke-opacity:0.41064639;stroke-dasharray:none"
       id="path5264-4-81-13"
       sodipodi:cx="-373.5"
       sodipodi:cy="362.86218"
       sodipodi:rx="13.5"
       sodipodi:ry="14.5"
       d="m -360,362.86218 c 0,8.00813 -6.04416,14.5 -13.5,14.5 -7.45584,0 -13.5,-6.49187 -13.5,-14.5 0,-8.00813 6.04416,-14.5 13.5,-14.5 7.45584,0 13.5,6.49187 13.5,14.5 z" />
    <path
       style="fill:#000000;fill-opacity:1;stroke:none"
       d="m 101.33285,63.817498 c 11.92231,6.66787 25.55914,9.91922 39.17253,11.16767 -0.21943,11.46455 -16.02193,7.32058 -23.15221,4.80301 -7.09075,-2.05789 -24.734593,-2.3139 -21.675203,-12.45772 1.73303,-1.40071 3.93898,-2.08681 5.654883,-3.51296 z"
       id="path5362"
       inkscape:connector-curvature="0" />
    <path
       style="fill:#000000;fill-opacity:1;stroke:none"
       d="m 169.84727,49.023704 c -8.38498,12.30646 -22.31778,21.34927 -37.60968,22.71945 -3.97726,7.39003 7.92892,10.2839 13.15883,7.27469 10.44848,-2.82342 20.64295,-7.74357 28.43893,-15.13362 5.98835,-5.19341 3.91899,-13.34726 -3.98808,-14.86052 z"
       id="path5380"
       inkscape:connector-curvature="0" />
    <path
       style="fill:#ffffff;fill-opacity:1;stroke:none"
       d="m 172.10195,185.61461 c 0,0 4.8146,0.80146 7.3807,0.85461 2.56654,0.0532 7.38069,-0.30972 7.38069,-0.30972 l 0.89997,-0.38811 -0.19284,0.0299 -1.51966,-12.76454 c -0.37371,-0.81336 -1.19769,-1.28803 -2.39177,-1.19488 l -9.20995,0.28088 c -0.50734,0.2032 -0.82183,0.55566 -0.84704,1.0574 z"
       id="rect5016-3"
       inkscape:connector-curvature="0"
       sodipodi:nodetypes="cscccccccc" />
    <path
       style="fill:#ffffff;fill-opacity:1;stroke:none"
       d="m 155.15964,177.65312 c 0,0 4.04459,2.65838 6.35934,3.73459 2.31515,1.0764 6.8545,2.67404 6.8545,2.67404 l 0.9848,0.007 -0.18836,-0.05 4.04423,-12.23538 c 0.005,-0.89054 -0.54316,-1.65292 -1.67042,-2.04633 l -6.13906,-2.90235 c 2.9144,4.40382 -4.99457,5.12949 -5.04865,3.10015 z"
       id="rect5016-3-7"
       inkscape:connector-curvature="0"
       sodipodi:nodetypes="cscccccccc" />
    <path
       style="fill:#ffffff;fill-opacity:1;stroke:none"
       d="m 186.2765,185.72074 c 0,0 4.81459,0.80145 7.38069,0.85461 2.56655,0.0532 6.4694,-1.9016 6.4694,-1.9016 l 0.89998,-0.38812 -0.19285,0.0299 -0.60837,-11.17266 c -0.37371,-0.81337 -1.19768,-1.28804 -2.39176,-1.19488 l -9.20996,0.28088 c -0.50733,0.20319 -0.82183,0.55565 -0.84703,1.05739 z"
       id="rect5016-3-8"
       inkscape:connector-curvature="0"
       sodipodi:nodetypes="cscccccccc" />
    <path
       style="fill:none;stroke:#f66c47;stroke-width:2.9568634;stroke-linecap:butt;stroke-linejoin:miter;stroke-miterlimit:4;stroke-opacity:1;stroke-dasharray:none"
       d="m 76.07258,166.16291 c 16.54185,5.02089 30.43961,30.20386 48.6683,21.84474 -2.88293,-13.22761 17.34872,-30.24543 30.61546,-12.21378 11.77296,14.5987 51.85245,18.35423 47.50673,-4.15449 0.22123,-6.36156 0.94453,-14.81976 11.46354,-17.30965"
       id="path5444"
       inkscape:connector-curvature="0" />
    <path
       style="fill:#b13339;fill-opacity:1;stroke:none"
       d="m 211.40899,327.9092 c 2.16379,14.82774 -10.05802,29.59354 -27.8809,33.34555 -8.26652,1.74023 -16.32685,0.81424 -22.93257,-2.13645 5.85694,10.33526 18.61054,16.06748 31.82025,13.28663 16.22955,-3.41657 27.01523,-18.38866 24.0981,-33.42702 -0.81033,-4.17738 -2.60438,-7.91294 -5.10488,-11.06871 z"
       id="path4095"
       inkscape:connector-curvature="0" />
    <path
       style="fill:#b13339;fill-opacity:1;stroke:none"
       d="m 200.32912,300.6792 c -3.9028,12.9116 -21.93041,21.11537 -40.98755,18.43579 -8.83899,-1.24284 -16.39068,-4.61466 -21.68804,-9.183 1.55717,10.40739 11.77037,19.25657 25.89486,21.2426 17.35347,2.44005 34.05237,-6.39851 37.29984,-19.72743 0.90207,-3.70251 0.65684,-7.35964 -0.51911,-10.76796 z"
       id="path4095-8"
       inkscape:connector-curvature="0" />
    <path
       style="fill:#b13339;fill-opacity:1;stroke:none"
       d="m 285.35432,368.31574 c 8.07703,11.10747 5.97112,29.97537 -4.95374,42.76159 -5.0671,5.93045 -11.16635,9.54037 -17.13301,10.68326 8.69986,5.38069 20.23526,3.2034 28.33239,-6.27331 9.9482,-11.64316 10.94914,-29.90208 2.24727,-40.77493 -2.41722,-3.02027 -5.33376,-5.1404 -8.49291,-6.39661 z"
       id="path4095-2"
       inkscape:connector-curvature="0" />
    <path
       style="fill:#b13339;fill-opacity:1;stroke:none"
       d="m 237.06119,350.18651 c 7.5899,12.22096 4.71382,30.91174 -6.69856,42.33651 -5.29324,5.29898 -11.51923,8.13046 -17.51139,8.4994 8.44655,6.54581 20.02995,5.86496 28.48843,-2.60267 10.39215,-10.40342 12.14216,-28.62648 3.92,-40.69328 -2.28396,-3.35192 -5.10255,-5.86429 -8.19848,-7.53996 z"
       id="path4095-3"
       inkscape:connector-curvature="0" />
    <path
       style="fill:#b13339;fill-opacity:1;stroke:none"
       d="m 366.07152,375.55439 c 12.25407,0.33692 22.49977,14.47243 23.09966,32.19133 0.27825,8.21829 -1.56594,15.80462 -4.84512,21.66503 9.13337,-3.93945 15.49298,-15.24837 15.04837,-28.38102 -0.54626,-16.13488 -11.15386,-28.92543 -23.68036,-28.57352 -3.47962,0.0978 -6.73683,1.21172 -9.62255,3.09818 z"
       id="path4095-0"
       inkscape:connector-curvature="0" />
    <path
       style="fill:#b13339;fill-opacity:1;stroke:none"
       d="m 379.58282,357.14618 c 10.49757,-8.80109 27.65192,-7.80242 38.87027,2.44571 5.20326,4.75324 8.24144,10.68481 9.03055,16.62967 5.2902,-9.08773 3.7941,-20.58291 -4.52055,-28.17848 -10.21547,-9.33198 -26.86053,-9.25338 -37.17042,0.16343 -2.8639,2.61581 -4.92646,5.68122 -6.20985,8.93967 z"
       id="path4095-7"
       inkscape:connector-curvature="0" />
    <path
       style="fill:#b13339;fill-opacity:1;stroke:none"
       d="m 382.77127,315.18298 c 0.63334,-9.18508 11.79644,-16.5952 25.41502,-16.70038 6.3165,-0.0488 12.08302,1.48214 16.48093,4.05586 -2.74444,-6.9275 -11.23019,-11.91783 -21.32381,-11.83988 -12.4011,0.0958 -22.54294,7.80352 -22.65591,17.20635 -0.0313,2.61192 0.72405,5.07679 2.08377,7.27805 z"
       id="path4095-77"
       inkscape:connector-curvature="0" />
    <path
       style="fill:#b13339;fill-opacity:1;stroke:none"
       d="m 323.47622,379.57222 c 10.53296,6.71286 14.8212,24.88579 9.56318,41.26396 -2.43874,7.59645 -6.51474,13.51016 -11.27413,17.10877 9.21733,1.20401 18.42916,-5.7237 22.32624,-17.86263 4.78797,-14.91399 -0.25325,-32.05678 -11.24748,-38.28757 -3.05399,-1.73078 -6.24625,-2.42396 -9.36781,-2.22253 z"
       id="path4095-6"
       inkscape:connector-curvature="0" />
    <path
       style="fill:#802100;fill-opacity:1;stroke:none"
       d="m 207.20427,233.0923 c 2.4575,12.42785 -7.66993,38.34971 -21.36987,30.67426 -1.63502,-8.35263 18.71138,-18.62064 9.4883,-4.75558 -12.42748,15.52656 -13.71353,-11.48917 -0.91275,-9.3496 -3.34716,5.50508 -7.57839,6.98184 1.03649,8.96115 -5.32719,9.8707 -17.86935,2.60693 -4.60774,-2.56729 10.48096,-6.03945 8.41372,14.07171 4.97341,0.76554 5.00285,-10.90808 2.17687,-6.65124 -6.09491,-4.25686 -6.04777,-16.92762 29.43927,-15.48806 14.03879,-1.4621 -8.69185,3.0227 6.3123,17.64206 -9.62893,16.62597 -2.70561,-5.67772 5.24312,-9.11262 -4.21415,-6.58005 -3.72735,-3.77491 7.72001,-1.05649 -2.22575,1.61447 -20.19448,5.57251 11.48823,-23.26699 3.62842,-5.90644 -7.39876,0.63329 14.32706,-16.60975 4.63963,-2.36323 -7.35272,16.95908 5.94372,-3.95366 5.29267,-10.94755 1.30394,-3.80781 3.10788,-7.54568 5.95639,-10.45269 z"
       id="path4230"
       inkscape:connector-curvature="0" />
  </g>
</svg>
